<svg version="1.2" xmlns="http://www.w3.org/2000/svg" viewBox="0 0 2814 511" width="2814" height="511">
	<style>
		.s0 { fill: #ffffff } 
	</style>
	<path class="s0" d="m443.84 309.02c9.05-15.46 31.53-15.46 40.48 0l96.18 164.77c9.05 15.47-2.29 34.71-20.29 34.71h-192.36c-18 0-29.24-19.24-20.29-34.71l96.18-164.77z"/>
	<path class="s0" d="m385.75 199.31c8.75-15.36 8.75-34.31 0-49.77l-78.88-137.95c-8.85-15.45-30.93-15.45-39.78 0l-263.97 462.1c-8.85 15.46 2.19 34.81 19.89 34.81h157.65c17.6 0 33.81-9.48 42.57-24.83l162.42-284.36z"/>
	<path class="s0" d="m931.31 470v38.5h-22.88c-27.35 0-37.59-11.87-37.99-32.01-13.93 20.44-35.61 34.41-68.23 34.41-45.36 0-76.89-22.55-76.89-61.45 0-43.48 30.64-67.22 88.72-67.22h51.92v-12.67c0-23.34-16.71-37.7-45.35-37.7-25.76 0-42.87 12.27-46.15 30.72h-43.77c4.88-40.59 39.19-66.43 92.01-66.43 52.81 0 87.02 26.63 87.02 76.21v83.98c0 10.67 3.68 13.56 13.04 13.56h8.55zm-65.35-54.95h-53.91c-26.95 0-42.07 10.27-42.07 31.51 0 17.66 14.72 29.93 38.39 29.93 36.01 0 57.59-21.75 57.59-53.27z"/>
	<path class="s0" d="m1027.38 508.5l-79.28-209.85h47.45l59.68 162.27 59.27-162.27h46.55l-79.67 209.85h-53.9z"/>
	<path class="s0" d="m1386.45 470v38.5h-22.87c-27.36 0-37.6-11.87-37.99-32.01-13.93 20.44-35.61 34.41-68.23 34.41-45.36 0-76.88-22.55-76.88-61.45 0-43.48 30.62-67.22 88.71-67.22h51.92v-12.67c0-23.34-16.71-37.7-45.35-37.7-25.77 0-42.87 12.27-46.15 30.72h-43.77c4.87-40.59 39.19-66.43 92.01-66.43 52.8 0 87.03 26.63 87.03 76.21v83.98c0 10.67 3.67 13.56 13.02 13.56h8.55zm-65.44-54.95h-53.9c-26.96 0-42.08 10.27-42.08 31.51 0 17.66 14.72 29.93 38.39 29.93 36.01 0 57.59-21.75 57.59-53.27z"/>
	<path class="s0" d="m1588.54 469.61v38.9h-169.98v-38.9h63.15v-206.26l-63.15 20.94v-39.1l54.01-20.74h53.31v245.26h62.76z"/>
	<path class="s0" d="m1823.98 470v38.5h-22.88c-27.35 0-37.6-11.87-37.99-32.01-13.93 20.44-35.62 34.41-68.24 34.41-45.35 0-76.88-22.55-76.88-61.45 0-43.48 30.64-67.22 88.72-67.22h51.92v-12.67c0-23.34-16.71-37.7-45.36-37.7-25.75 0-42.86 12.27-46.14 30.72h-43.77c4.88-40.59 39.19-66.43 92-66.43 52.82 0 87.03 26.63 87.03 76.21v83.98c0 10.67 3.69 13.56 13.04 13.56h8.55zm-65.35-54.95h-53.91c-26.95 0-42.07 10.27-42.07 31.51 0 17.66 14.72 29.93 38.39 29.93 36.01 0 57.59-21.75 57.59-53.27z"/>
	<path class="s0" d="m2060.31 388.81v119.69h-44.57v-115.6c0-37.3-15.91-57.75-47.44-57.75-33.12 0-53.11 24.14-53.11 64.73v108.62h-44.16v-209.85h38.39l4.87 27.43c12.64-16.36 32.33-29.93 64.16-29.93 44.55 0 81.75 24.14 81.75 92.66z"/>
	<path class="s0" d="m2114.51 403.97c0-64.73 41.27-107.82 104.23-107.82 53.51 0 87.03 29.93 95.19 77.5h-46.15c-5.77-24.63-23.28-39.79-49.83-39.79-35.11 0-58.49 29.12-58.49 70.11 0 41 23.28 69.22 58.49 69.22 26.15 0 44.15-15.56 49.43-39.79h46.55c-7.76 47.57-43.37 77.5-96.48 77.5-62.96 0-103.05-41.4-103.05-106.93z"/>
	<path class="s0" d="m2558.29 388.82v119.68h-44.57v-115.99c0-36.11-15.91-57.35-48.63-57.35-32.73 0-53.91 24.63-53.91 64.33v109.01h-44.16v-286.85h44.16v103.73c14.33-18.05 36-29.12 64.15-29.12 49.04 0 82.96 29.12 82.96 92.65z"/>
	<path class="s0" d="m2656.65 413.85v2.1c1.2 35.6 23.28 59.04 57.59 59.04 26.16 0 46.15-13.56 51.92-36.9h44.16c-7.37 41.39-42.07 72.91-93.59 72.91-65.35 0-106.23-42.59-106.23-106.92 0-64.33 40.88-107.82 101.76-107.82 60.85 0 100.56 38.5 101.74 100.04 0 4.49-0.41 11.47-1.18 17.65h-156.17zm1.6-33.21h109.89c-3.66-31.12-24.95-48.77-55.59-48.77-27.35 0-51.12 18.85-54.4 48.77z"/>
</svg>