<svg version="1.2" xmlns="http://www.w3.org/2000/svg" viewBox="0 0 1047 183" width="1047" height="183">
	<style>
		.s0 { fill: #ffffff } 
	</style>
	<path class="s0" d="m30.6 28.03l48.67-28.03 48.67 28.03-17.89 10.36-30.78-17.68-30.78 17.68zm97.35 35.35l-17.9-10.36-30.77 17.68-30.78-17.68-17.9 10.36v20.71l30.78 17.67v35.35l17.9 10.36 17.89-10.36v-35.35l30.78-17.67zm12.7 63.38l-30.77 17.67v20.71l48.67-28.03v-56.06l-17.9 10.36zm-12.7-7.32v-20.71l-17.9 10.35v20.71zm-5.19-73.73l17.9 10.35v20.71l17.89-10.35v-20.71l-17.89-10.36zm-61.38 106.23v20.71l17.9 10.35 17.89-10.35v-20.71l-17.89 10.35zm-43.49-60.52l-17.89-10.36v56.07l48.67 28.03v-20.71l-30.78-17.68zm43.49-45.7l17.89 10.35 17.89-10.35-17.89-10.36zm-43.48 10.36l17.89-10.36-17.89-10.36-17.9 10.36v20.71l17.9 10.36zm12.7 63.38l17.9 10.35v-20.71l-17.9-10.35z"/>
	<path class="s0" d="m299.62 114.84v-0.29c0-13.67-7.29-20.51-19.11-25.02 7.3-4.08 13.42-10.48 13.42-21.97v-0.29c0-16.01-12.83-26.34-33.68-26.34h-47.4v101.85h48.56c23.04 0 38.21-9.31 38.21-27.94zm-28-43.5c0 7.57-6.27 10.77-16.19 10.77h-20.7v-21.53h22.16c9.48 0 14.73 3.78 14.73 10.47zm5.69 40.74c0 7.56-5.98 11.06-15.9 11.06h-26.68v-22.41h25.95c11.52 0 16.63 4.22 16.63 11.06z"/>
	<path class="s0" d="m410.25 142.78v-101.85h-22.16v62.71l-47.83-62.71h-20.71v101.85h22.16v-64.74l49.44 64.74z"/>
	<path class="s0" d="m522.98 114.84v-0.29c0-13.67-7.29-20.51-19.11-25.02 7.3-4.08 13.42-10.48 13.42-21.97v-0.29c0-16.01-12.83-26.34-33.68-26.34h-47.4v101.85h48.56c23.04 0 38.21-9.31 38.21-27.94zm-28-43.5c0 7.57-6.27 10.77-16.19 10.77h-20.7v-21.53h22.16c9.48 0 14.73 3.78 14.73 10.47zm5.69 40.74c0 7.56-5.98 11.06-15.9 11.06h-26.68v-22.41h25.95c11.52 0 16.63 4.22 16.63 11.06z"/>
	<path class="s0" d="m658.32 124.79l-11.52-11.64c-8.75 8.15-16.77 13.24-29.31 13.24-19.54 0-33.68-16.3-33.68-36.38 0-20.07 14.14-36.08 33.68-36.08 11.67 0 20.42 5.09 28.58 12.66l11.52-13.24c-9.77-9.31-21.14-15.86-39.95-15.86-30.92 0-52.65 23.72-52.65 52.82 0 29.38 22.17 52.52 51.92 52.52 19.1 0 30.77-6.99 41.41-18.04z"/>
	<path class="s0" d="m745.27 98.16v42.92h17.94v-101.84h-17.94v42.34h-48.7v-42.34h-17.94v101.84h17.94v-42.92z"/>
	<path class="s0" d="m843.67 38.51h-16.62l-44.92 102.57h18.37l10.5-24.59h48.27l10.36 24.59h18.95zm9.04 62.13h-35.14l17.5-40.74z"/>
	<path fill-rule="evenodd" class="s0" d="m926.5 39.24v101.84h-17.93v-101.84z"/>
	<path class="s0" d="m1026.59 109.66l-54.68-70.42h-16.63v101.84h17.65v-72.45l56.29 72.45h15.02v-101.84h-17.65z"/>
</svg>